<svg xmlns="http://www.w3.org/2000/svg" viewBox="0 0 46.429 105.6675" x="0px" y="0px"><title>Blockpad-upload</title><g><path d="M20.507,77.327l1.238-.978c-.418.284-.831.574-1.238.862Z" transform="translate(0 -0.004)" fill="none"/><path d="M20.507,66.844v.105c.135-.092.269-.18.4-.273A2.2,2.2,0,0,1,20.507,66.844Z" transform="translate(0 -0.004)" fill="none"/><path d="M20.507,75.7v.037c.063-.055.114-.1.185-.163Z" transform="translate(0 -0.004)" fill="none"/><path d="M25.649,52.636c.1-.045.182-.079.269-.115v-.137C25.829,52.467,25.752,52.542,25.649,52.636Z" transform="translate(0 -0.004)" fill="none"/><path d="M20.507,68.173v.735c1.2-.907,2.418-1.869,3.4-2.7Z" transform="translate(0 -0.004)" fill="none"/><path d="M20.507,72.253c.136-.126.284-.259.458-.4a4.3,4.3,0,0,1-.458.2Z" transform="translate(0 -0.004)" fill="none"/><path d="M20.507,74.083v.391c.4-.28.8-.558,1.2-.844A4.607,4.607,0,0,1,20.507,74.083Z" transform="translate(0 -0.004)" fill="none"/><path d="M20.507,59.95v.276c1.629-1.063,3.26-2.205,4.352-3.068C23.663,57.856,22.032,58.91,20.507,59.95Z" transform="translate(0 -0.004)" fill="none"/><path d="M22.991,52.67c.908-.56,1.938-1.227,2.927-1.888v-.938Z" transform="translate(0 -0.004)" fill="none"/><path d="M20.507,64.107v.073c.041-.033.076-.063.121-.1A.475.475,0,0,1,20.507,64.107Z" transform="translate(0 -0.004)" fill="none"/><path d="M25.918,26.717v-1.5a14.531,14.531,0,0,0-2.9,1.435L14.225,32.57a.472.472,0,0,1-.123.037.487.487,0,0,1,0,.061v.459h-.36l-2.133,1.9,14.389-8.307Z" transform="translate(0 -0.004)" fill="none"/><path d="M25.918,23.375v-.8c-3.114,1.925-4.639,2.806-5.411,3.193V26.7C23.679,24.412,25.142,23.427,25.918,23.375Z" transform="translate(0 -0.004)" fill="none"/><path d="M20.267,26.872l.216-.155H19.5c-1.956,1.464-4.039,3.115-5.106,4.075A58.3,58.3,0,0,0,20.267,26.872Z" transform="translate(0 -0.004)" fill="none"/><path d="M24.811,48.92a4.819,4.819,0,0,1,1.107-.471v-.615C25.648,48.118,25.293,48.467,24.811,48.92Z" transform="translate(0 -0.004)" fill="none"/><path d="M20.507,52.769v.91l2.831-2.734C22.446,51.5,21.448,52.142,20.507,52.769Z" transform="translate(0 -0.004)" fill="none"/><path d="M14.445,27.834l-.348.208V28.3Z" transform="translate(0 -0.004)" fill="none"/><path d="M25.452,20.307h-.917c-.866.8-1.758,1.639-2.487,2.334C23.05,22.021,24.3,21.158,25.452,20.307Z" transform="translate(0 -0.004)" fill="none"/><polygon points="24.164 46.119 25.918 45.105 25.918 44.581 24.164 46.119" fill="none"/><path d="M21.922,33.484c-2.809,1.7-6.456,3.9-7.906,5.054h.9a25.83,25.83,0,0,0,2.6-1.321c.989-.623,1.99-1.25,2.982-1.865,1.609-1.021,3.244-2.064,4.763-3.046,1.748-1.184,3.751-2.574,6.043-4.2.514-.366.822-.584,1.025-.714v-.67h-.734C31.291,27.665,28.986,29.22,21.922,33.484Z" transform="translate(0 -0.004)" fill="none"/><path d="M20.507,22.615v.106c.052-.052.093-.094.15-.15A1.559,1.559,0,0,1,20.507,22.615Z" transform="translate(0 -0.004)" fill="none"/><path d="M16.847,27.137l.628-.42h-.937l-.943,1.253C16.035,27.683,16.487,27.379,16.847,27.137Z" transform="translate(0 -0.004)" fill="none"/><path d="M21.833,72.429c1.109-.644,2.646-1.663,4.085-2.683V69.28c-.45.372-1.063.838-1.918,1.479C23.372,71.23,22.519,71.869,21.833,72.429Z" transform="translate(0 -0.004)" fill="none"/><path d="M29.7,38.538c.024-.03.034-.051.063-.085l-.153.085Z" transform="translate(0 -0.004)" fill="none"/><path d="M25.854,58.671a.473.473,0,0,1,.064-.028v-.2c-1.127.808-2.244,1.634-3.159,2.344C23.728,60.167,24.844,59.4,25.854,58.671Z" transform="translate(0 -0.004)" fill="none"/><path d="M27.873,26.717l-.015.018.026.046-.194.112c-.069.062-.147.129-.236.2.267-.136.52-.261.765-.378Z" transform="translate(0 -0.004)" fill="none"/><path d="M37.9,33.252c-1.748,1.308-3.6,2.725-5.023,3.85.857-.569,1.762-1.2,2.467-1.7a19.368,19.368,0,0,1,3.4-2.171v-.1h-.725A.5.5,0,0,1,37.9,33.252Z" transform="translate(0 -0.004)" fill="none"/><path d="M22.712,49.471c-1.095.65-1.771,1.021-2.205,1.233v.735C21.262,50.773,22.019,50.1,22.712,49.471Z" transform="translate(0 -0.004)" fill="none"/><path d="M37.286,35.921c-.285.222-.63.491-.991.777l2.443-1.417v-.512C38.387,35.061,37.924,35.424,37.286,35.921Z" transform="translate(0 -0.004)" fill="none"/><path d="M20.507,56.974v.041c.3-.223.711-.508,1.262-.889C21.348,56.4,20.927,56.689,20.507,56.974Z" transform="translate(0 -0.004)" fill="none"/><path d="M36.734,38.538a5.611,5.611,0,0,1,.943-1.485c-1.125.653-1.952,1.131-2.571,1.485Z" transform="translate(0 -0.004)" fill="none"/><path d="M38.738,37.388v-.069l-.123.156Z" transform="translate(0 -0.004)" fill="none"/><path d="M25.918,77.724v-.247c-.089.1-.173.2-.282.316A1.336,1.336,0,0,1,25.918,77.724Z" transform="translate(0 -0.004)" fill="none"/><path d="M33.127,33.492c.226-.135.43-.254.622-.364h-.354A2.711,2.711,0,0,1,33.127,33.492Z" transform="translate(0 -0.004)" fill="none"/><path d="M20.6,46.091a.479.479,0,0,1-.092.031v.187c.523-.354,1.051-.708,1.558-1.064Z" transform="translate(0 -0.004)" fill="none"/><path d="M20.507,47.594V48L21.9,46.777A11.79,11.79,0,0,1,20.507,47.594Z" transform="translate(0 -0.004)" fill="none"/><path d="M25.918,40.539V40.51l-.145.112Z" transform="translate(0 -0.004)" fill="none"/><path d="M20.507,44.818v.144c.574-.368,1.155-.75,1.712-1.133Z" transform="translate(0 -0.004)" fill="none"/><path d="M32.328,32.906v-.123a8.567,8.567,0,0,0-1.754.764c-1.01.647-2.35,1.464-4.1,2.516l-.5.3c-1.762,1.166-3.664,2.5-5.459,3.825V40.8c.762-.544,2.005-1.32,3.975-2.533C26.93,36.755,31.24,34.1,32.328,32.906Z" transform="translate(0 -0.004)" fill="none"/><path d="M23.368,34.776l.23-.143-.17.1Z" transform="translate(0 -0.004)" fill="none"/><path d="M18.58,37.749l-1.261.789h1.387c.151-.582.952-1.321,2.674-2.481Q19.836,37.029,18.58,37.749Z" transform="translate(0 -0.004)" fill="none"/><path d="M20.544,58.287c-.012.007-.026.008-.038.014v.12c.385-.279.859-.6,1.446-1C21.461,57.72,20.982,58.016,20.544,58.287Z" transform="translate(0 -0.004)" fill="none"/><path d="M32.328,30.724V30.43c-.966.681-2.52,1.627-4.908,3.054-1.628.974-3.892,2.327-5.553,3.449C24.706,35.308,29.137,32.66,32.328,30.724Z" transform="translate(0 -0.004)" fill="none"/><path d="M20.507,79.854v1a52.422,52.422,0,0,0,4.258-3.6C23.645,77.9,22.049,78.877,20.507,79.854Z" transform="translate(0 -0.004)" fill="none"/><path d="M27.33,1.076l-4.4,3.758c1.71-1,3.9-2.364,6.071-3.758Z" transform="translate(0 -0.004)" fill="none"/><path d="M16.991,5.008c-1.111.654-1.945,1.129-2.581,1.478h1.322A6.22,6.22,0,0,1,16.991,5.008Z" transform="translate(0 -0.004)" fill="none"/><path d="M30.848,1.076l-.048.031c-.254.2-.668.47-1.313.9-.337.224-.783.52-1.284.855,1.019-.6,2.059-1.206,3.044-1.784Z" transform="translate(0 -0.004)" fill="none"/><path d="M21.573,1.076h-.492c-1.037.717-2.1,1.464-3.113,2.179C19.173,2.535,20.421,1.779,21.573,1.076Z" transform="translate(0 -0.004)" fill="none"/><path d="M33.355,1.076a1.746,1.746,0,0,1-.161.252l.437-.252Z" transform="translate(0 -0.004)" fill="none"/><path d="M8.107,1.076a1.5,1.5,0,0,1-.263.506c.275-.168.547-.337.822-.506Z" transform="translate(0 -0.004)" fill="none"/><path d="M1.841,1.076,1.676,2.131C2.119,1.887,2.743,1.5,3.4,1.076Z" transform="translate(0 -0.004)" fill="none"/><path d="M5.295,1.076c-.935.869-1.9,1.78-2.662,2.507,1.044-.615,2.426-1.546,3.756-2.507Z" transform="translate(0 -0.004)" fill="none"/><path d="M17.154,1.076a.477.477,0,0,1-.054.068c-1.434,1.231-3.383,2.922-4.858,4.227,1.832-1.048,4.426-2.648,6.99-4.3Z" transform="translate(0 -0.004)" fill="none"/><path d="M43.258,1.076H41.92a.482.482,0,0,1-.067.083L39.074,3.491Z" transform="translate(0 -0.004)" fill="none"/><path d="M35.1,1.793l1.242-.717h-.526A6.462,6.462,0,0,1,35.1,1.793Z" transform="translate(0 -0.004)" fill="none"/><path d="M7.877,4.254,4.012,6.486H5.467A13.88,13.88,0,0,1,7.877,4.254Z" transform="translate(0 -0.004)" fill="none"/><path d="M10.354,5.7c-.457.279-.9.542-1.329.781h.542C9.742,6.291,9.989,6.044,10.354,5.7Z" transform="translate(0 -0.004)" fill="none"/><path d="M38.173,1.161,34.951,4l5.06-2.921H38.239A.483.483,0,0,1,38.173,1.161Z" transform="translate(0 -0.004)" fill="none"/><path d="M19.46,4.214q3.344-2.1,5.274-3.138H23.524C22.128,2.1,20.675,3.221,19.46,4.214Z" transform="translate(0 -0.004)" fill="none"/><path d="M26.988,6.473c1.138-.775,2.306-1.59,3.39-2.364L26.262,6.486h.714S26.983,6.477,26.988,6.473Z" transform="translate(0 -0.004)" fill="none"/><path d="M12.609,38.538c.642-.886,2.932-2.371,8.8-5.911a87.992,87.992,0,0,0,8.84-5.739c-2.511.826-11.184,6.167-19.355,11.65Z" transform="translate(0 -0.004)" fill="none"/><path d="M34.061,6.393l2.774-2.329L32.641,6.486h1.344A.483.483,0,0,1,34.061,6.393Z" transform="translate(0 -0.004)" fill="none"/><path d="M1.277,3.383v.1c.051-.05.091-.092.146-.146A1.491,1.491,0,0,1,1.277,3.383Z" transform="translate(0 -0.004)" fill="none"/><path d="M40.917,6.393c.719-.565,1.462-1.166,2.135-1.726-.31.185-.634.379-.968.582-.563.37-1.219.784-1.96,1.237h.713A.485.485,0,0,1,40.917,6.393Z" transform="translate(0 -0.004)" fill="none"/><path d="M44.037,1.94l-.185.126L44.989,1.4a.486.486,0,0,1,.16-.056V1.168C44.895,1.354,44.538,1.6,44.037,1.94Z" transform="translate(0 -0.004)" fill="none"/><path d="M10.491,1.076a.485.485,0,0,1-.092.1L7.993,3.033l3.389-1.957Z" transform="translate(0 -0.004)" fill="none"/><path d="M9.154,38.5l.148-.1c2.653-1.794,5.807-3.937,8.727-5.932L7.85,38.345a.5.5,0,0,1-.163.057v.136h1.43C9.131,38.527,9.139,38.511,9.154,38.5Z" transform="translate(0 -0.004)" fill="none"/><polygon points="23.824 81.335 20.507 83.25 20.507 83.407 21.776 83.407 23.824 81.335" fill="none"/><path d="M20.507,55.088v.533c.488-.394.973-.787,1.441-1.171A5.981,5.981,0,0,1,20.507,55.088Z" transform="translate(0 -0.004)" fill="none"/><polygon points="25.918 81.115 25.918 80.639 24.824 81.746 25.918 81.115" fill="none"/><path d="M25.682,82.409l-1.736,1h1.782C25.706,83.077,25.685,82.744,25.682,82.409Z" transform="translate(0 -0.004)" fill="none"/><path d="M10.5,33.128c-.135.191-.335.438-.643.8.45-.306.843-.565,1.2-.8Z" transform="translate(0 -0.004)" fill="none"/><path d="M20.905,21.364c.443-.245,1.068-.63,1.732-1.057H21.071Z" transform="translate(0 -0.004)" fill="none"/><path d="M7.687,34.7v.145l.272-.3Z" transform="translate(0 -0.004)" fill="none"/><path d="M9.226,35.572c-.74.515-1.213.839-1.539,1.044v.55l2.679-2.38C9.936,35.079,9.537,35.356,9.226,35.572Z" transform="translate(0 -0.004)" fill="none"/><path d="M25.918,67.735v-.52c-1.154.857-2.3,1.748-3.232,2.512C23.671,69.137,24.819,68.429,25.918,67.735Z" transform="translate(0 -0.004)" fill="none"/><path d="M8.05,33.128c-.057.1-.115.2-.169.307l.531-.307Z" transform="translate(0 -0.004)" fill="none"/><path d="M13.442,1.076a23.935,23.935,0,0,1-2.583,2.113c-1.17.9-3.094,2.386-4.06,3.3h.09a69.457,69.457,0,0,0,8.592-5.41Z" transform="translate(0 -0.004)" fill="none"/><polygon points="28.964 6.482 30.611 6.482 33.744 3.724 28.964 6.482" fill="none"/><path d="M23.942,6.486h.294c1.023-.627,2.058-1.279,3.034-1.916C25.727,5.469,24.674,6.076,23.942,6.486Z" transform="translate(0 -0.004)" fill="none"/><path d="M17.751,6.486h1.713L23.893,2.7C22.161,3.715,19.945,5.085,17.751,6.486Z" transform="translate(0 -0.004)" fill="none"/><path d="M35.885,6.486h.048c.028-.026.05-.047.081-.075Z" transform="translate(0 -0.004)" fill="none"/><path d="M1.868,6.486,2.9,5.695c-.668.376-1.132.62-1.481.791Z" transform="translate(0 -0.004)" fill="none"/><path d="M33.19,38.093c-.258.169-.479.3-.7.445h.4A2.247,2.247,0,0,1,33.19,38.093Z" transform="translate(0 -0.004)" fill="none"/><path d="M42.849,6.486h.232c.079-.083.157-.166.236-.25C43.162,6.323,43,6.4,42.849,6.486Z" transform="translate(0 -0.004)" fill="none"/><path d="M39.976,35.151a.5.5,0,0,0-.237-.2V32.128H33.453a.771.771,0,0,0-.125-.149v-.725a.562.562,0,0,0,0-.337V29.622c.4-.41.436-.694.267-.987a.63.63,0,0,0-.267-.22v-2.7h-6.41v-.485a.5.5,0,0,0,.146-.65.833.833,0,0,0-.146-.174v-5.1h-2.2a.493.493,0,0,0-.562-.006l-.009.006H20.77a.472.472,0,0,0-.239,0H19.507v.575a.476.476,0,0,0,0,.713V25.1l-.043.027a.493.493,0,0,0-.2.586H16.437l0,0a.417.417,0,0,0-.289,0H13.1v1.7a.724.724,0,0,0-.007.635l.007.008v2.625c-.519.6-.416.784-.307.973a.777.777,0,0,0,.307.283v.118c-.064.018-.138.047-.209.073H7.879a.458.458,0,0,0-.224,0H6.687v.556a.446.446,0,0,0,0,.709v.22c-.129.28-.254.563-.364.85a.5.5,0,0,0,.142.56.49.49,0,0,0,.222.093v.843l-.114.126a.5.5,0,0,0-.062.585.52.52,0,0,0,.176.173v2.7H12.6a.984.984,0,0,0,.551.314,3.607,3.607,0,0,0,1.793-.314h.441a.464.464,0,0,0,.235,0h3.888v.105a.558.558,0,0,0,0,.482v1.6a.474.474,0,0,0,0,.445v7.862l-.026.018a.5.5,0,0,0-.148.658.521.521,0,0,0,.174.172v5.542l-.163.131a.5.5,0,0,0-.091.688.49.49,0,0,0,.254.172V59.24c-.351.364-.4.62-.238.9a.5.5,0,0,0,.238.2v.536a.5.5,0,0,0-.139.648.556.556,0,0,0,.139.147V76.81a.353.353,0,0,0,0,.334V78.98c-.356.417-.409.732-.233,1.038a.49.49,0,0,0,.233.2V84.41h2.039a.468.468,0,0,0,.563.06l.1-.06h4.706v-.564l.129-.075a.5.5,0,0,0,.183-.683.475.475,0,0,0-.312-.215V79.632l.229-.232a.5.5,0,0,0-.229-.833V73.536l0,0a.5.5,0,0,0,.123-.643.594.594,0,0,0-.125-.138V70.613c.554-.689.42-.948.315-1.129a.5.5,0,0,0-.315-.234V66.481l.011-.008a.5.5,0,0,0,.14-.656.594.594,0,0,0-.15-.155V64.428a.527.527,0,0,0,0-.4v-.806c.307-.433.206-.618.113-.778a.545.545,0,0,0-.113-.122V57.7a.494.494,0,0,0,.054-.565.605.605,0,0,0-.054-.065v-.539c.359-.511.24-.734.151-.886a.6.6,0,0,0-.151-.157v-.553c.325-.4.383-.717.207-1.022a.513.513,0,0,0-.207-.188v-.195c.422-.444.431-.682.281-.942a.671.671,0,0,0-.281-.229V51.277a.434.434,0,0,0,.012-.524c0-.005-.009-.008-.012-.013V45.773c.468-.476.387-.628.273-.824a.5.5,0,0,0-.273-.218V42.656c.442-.539.333-.748.23-.924a.494.494,0,0,0-.23-.2V39.538h3.161a.825.825,0,0,0,.128.013c.021,0,.051-.012.072-.013h9.459V36.044C40.072,35.585,40.114,35.4,39.976,35.151Zm-3.241,3.387H35.107c.619-.354,1.446-.832,2.571-1.485A5.611,5.611,0,0,0,36.734,38.538Zm2-1.15-.123.087.123-.156Zm-2.443-.69c.361-.286.706-.555.991-.777.638-.5,1.1-.86,1.452-1.152v.512Zm2.443-3.466a19.368,19.368,0,0,0-3.4,2.171c-.705.495-1.609,1.129-2.467,1.7,1.424-1.125,3.275-2.542,5.023-3.85a.5.5,0,0,0,.114-.125h.725ZM29.7,38.538h-.09l.153-.085C29.737,38.487,29.727,38.508,29.7,38.538Zm-3.785,20.1a.473.473,0,0,0-.064.028c-1.01.733-2.125,1.5-3.094,2.114.915-.709,2.031-1.536,3.159-2.344Zm0,19.081a1.336,1.336,0,0,0-.282.069c.109-.115.193-.214.282-.316Zm0-7.978c-1.439,1.02-2.976,2.039-4.085,2.683.686-.56,1.54-1.2,2.167-1.67.855-.641,1.468-1.107,1.918-1.479ZM20.507,56.974c.42-.285.841-.572,1.262-.849-.551.381-.959.666-1.262.889Zm0,1.327c.012-.006.026-.007.038-.014.438-.271.917-.567,1.409-.868-.588.4-1.061.723-1.446,1Zm-1.8-19.763H17.319l1.261-.789q1.257-.72,2.8-1.692C19.657,37.217,18.857,37.956,18.706,38.538Zm1.8,1.651c1.8-1.325,3.7-2.658,5.459-3.825l.5-.3c1.755-1.052,3.095-1.869,4.1-2.516a8.567,8.567,0,0,1,1.754-.764v.123c-1.088,1.192-5.4,3.849-7.847,5.357-1.969,1.213-3.212,1.989-3.975,2.533Zm6.913-6.7c2.388-1.427,3.942-2.374,4.908-3.054v.293c-3.191,1.936-7.622,4.584-10.461,6.21C23.528,35.812,25.792,34.459,27.42,33.485Zm-4.052,1.291.06-.039.17-.1Zm2.55,5.763-.145.083.145-.112Zm7.209-7.047a2.711,2.711,0,0,0,.268-.364h.354C33.557,33.238,33.353,33.357,33.127,33.492ZM20.507,46.122a.479.479,0,0,0,.092-.031l1.466-.846c-.508.356-1.035.711-1.558,1.064Zm0-1.16v-.144l1.712-.989C21.661,44.212,21.081,44.594,20.507,44.962Zm0,2.632a11.79,11.79,0,0,0,1.393-.817L20.507,48Zm2.205,1.877c-.693.629-1.45,1.3-2.205,1.968V50.7C20.941,50.492,21.617,50.121,22.712,49.471Zm-2.205,3.3c.941-.627,1.939-1.271,2.831-1.823l-2.831,2.734Zm0,7.181c1.525-1.041,3.156-2.094,4.352-2.792-1.092.863-2.722,2.006-4.352,3.068Zm0,14.133a4.607,4.607,0,0,0,1.2-.453c-.4.287-.8.564-1.2.844Zm0-1.83v-.209a4.3,4.3,0,0,0,.458-.2C20.791,71.994,20.643,72.127,20.507,72.253Zm0-8.146a.475.475,0,0,0,.121-.024c-.045.035-.08.065-.121.1Zm0,2.736a2.2,2.2,0,0,0,.4-.168c-.135.093-.269.181-.4.273Zm0,8.855.185-.126c-.071.061-.121.108-.185.163Zm1.238.651-1.238.978v-.115C20.913,76.924,21.327,76.634,21.745,76.35Zm-1.238,3.5c1.542-.977,3.138-1.956,4.258-2.6a52.422,52.422,0,0,1-4.258,3.6Zm0-10.946v-.735l3.4-1.962C22.925,67.04,21.71,68,20.507,68.908Zm5.143-16.272c.1-.094.18-.169.269-.252v.137C25.831,52.557,25.747,52.591,25.649,52.636Zm-2.659.034,2.927-2.826v.938C24.929,51.443,23.9,52.11,22.991,52.67Zm2.927-4.221a4.819,4.819,0,0,0-1.107.471c.482-.452.837-.8,1.107-1.085Zm-1.754-2.327,1.754-1.538v.525Zm8.164-18.735c-.2.131-.511.349-1.025.714-2.292,1.63-4.295,3.021-6.043,4.2-1.52.982-3.154,2.025-4.763,3.046-.992.616-1.993,1.242-2.982,1.865a25.83,25.83,0,0,1-2.6,1.321h-.9c1.45-1.157,5.1-3.359,7.906-5.054,7.064-4.263,9.369-5.818,9.672-6.767h.734Zm-14.854-.67-.628.42c-.359.242-.812.546-1.253.833l.943-1.253Zm3.033-4.1a1.559,1.559,0,0,0,.15-.044c-.057.056-.1.1-.15.15Zm5.411-.04v.8c-.776.052-2.239,1.036-5.411,3.324v-.932C21.279,25.381,22.8,24.5,25.918,22.575Zm-.466-2.268c-1.149.851-2.4,1.714-3.4,2.334.729-.695,1.621-1.531,2.487-2.334Zm-4.969,6.41-.216.155a58.3,58.3,0,0,1-5.877,3.92c1.066-.96,3.15-2.611,5.106-4.075Zm-6.038,1.117L14.1,28.3v-.254Zm-.708,5.294h.36v-.459a.487.487,0,0,0,0-.061.472.472,0,0,0,.123-.037l8.792-5.918a14.531,14.531,0,0,1,2.9-1.435v1.5h.075L11.6,35.023Zm13.952-6.235.194-.112-.026-.046.015-.018h.346c-.246.118-.5.242-.765.378C27.542,27.021,27.62,26.954,27.689,26.893Zm2.557,0a87.992,87.992,0,0,1-8.84,5.739c-5.864,3.54-8.155,5.025-8.8,5.911H10.891C19.062,33.056,27.735,27.714,30.246,26.888Zm-9.341-5.524.165-1.057h1.567C21.974,20.734,21.348,21.119,20.905,21.364ZM7.687,36.616c.326-.205.8-.529,1.539-1.044.311-.216.71-.494,1.14-.786l-2.679,2.38Zm.363-3.488h.362l-.531.307C7.935,33.331,7.994,33.23,8.05,33.128Zm1.806.8c.309-.357.508-.605.643-.8h.56C10.7,33.358,10.306,33.618,9.856,33.924ZM7.687,34.7l.272-.157-.272.3Zm0,3.7a.5.5,0,0,0,.163-.057l10.179-5.876c-2.92,2-6.074,4.138-8.727,5.932l-.148.1c-.015.01-.023.026-.036.037H7.687Zm12.82,16.686a5.981,5.981,0,0,0,1.441-.638c-.468.384-.953.777-1.441,1.171Zm0,28.165,3.317-1.914L21.776,83.41H20.507Zm5.175-.844c0,.334.024.668.046,1H23.946Zm.236-1.291-1.094.63,1.094-1.106Zm0-13.384c-1.1.694-2.247,1.4-3.232,1.992.929-.764,2.079-1.655,3.232-2.512ZM33.19,38.093a2.247,2.247,0,0,0-.305.445h-.4C32.712,38.4,32.932,38.263,33.19,38.093Z" transform="translate(0 -0.004)" fill="#000000"/><path d="M46.149,4.119V3.178c.383-.483.293-.648.189-.827a.527.527,0,0,0-.189-.179V.076H45.3l-.009,0a.5.5,0,0,0-.247,0h-9.3A.492.492,0,0,0,35.7.051a.513.513,0,0,0-.3.025H27.278c-.016-.006-.032-.02-.048-.023a.679.679,0,0,0-.305.023H23.6a.487.487,0,0,0-.364,0H5.44a.5.5,0,0,0-.516,0H1.546a.47.47,0,0,0-.254,0H.277V.647a.493.493,0,0,0-.092.6.5.5,0,0,0,.092.111V5.874L.241,5.9a.5.5,0,0,0-.175.676.527.527,0,0,0,.21.19v.724H1.289c0,.008.006.018.011.026a.5.5,0,0,0,.666.155l.314-.181H5.406a.735.735,0,0,0,.4.244.769.769,0,0,0,.164.016,3.162,3.162,0,0,0,1.022-.26H9.483a.6.6,0,0,0,.167.082,1.159,1.159,0,0,0,.509-.082H23.8a.5.5,0,0,0,.593.081l.14-.081H35.58a.5.5,0,0,0,.261.183c.095.026.174.036.612-.183h9.7V4.34A.493.493,0,0,0,46.149,4.119Zm-3.3,2.367c.155-.085.313-.163.468-.25-.078.084-.157.167-.236.25Zm-6.964,0,.129-.075c-.031.027-.053.049-.081.075Zm-6.921,0,4.78-2.758L30.611,6.486Zm-5.022,0c.732-.41,1.785-1.016,3.327-1.916-.976.637-2.01,1.289-3.034,1.916Zm-6.191,0c2.194-1.4,4.41-2.771,6.142-3.787L19.464,6.486ZM6.8,6.486c.966-.911,2.89-2.4,4.06-3.3a23.935,23.935,0,0,0,2.583-2.113h2.039a69.457,69.457,0,0,1-8.592,5.41Zm-4.931,0H1.414c.349-.171.813-.415,1.481-.791Zm-.591-3.1a1.491,1.491,0,0,0,.146-.042c-.056.055-.1.1-.146.146Zm.564-2.307H3.4c-.661.425-1.286.811-1.729,1.055Zm.793,2.507c.757-.726,1.726-1.638,2.662-2.507H6.389C5.059,2.037,3.677,2.968,2.633,3.583ZM8.107,1.076h.559c-.275.169-.547.338-.822.506A1.5,1.5,0,0,0,8.107,1.076Zm2.293.1a.485.485,0,0,0,.092-.1h.891L7.993,3.033Zm6.7-.036a.477.477,0,0,0,.054-.068h2.079c-2.564,1.647-5.158,3.248-6.99,4.3C13.718,4.066,15.667,2.376,17.1,1.145Zm4.473-.068c-1.152.7-2.4,1.459-3.6,2.179,1.009-.715,2.075-1.461,3.113-2.179ZM16.991,5.008a6.22,6.22,0,0,0-1.26,1.478H14.409C15.046,6.137,15.88,5.662,16.991,5.008Zm5.944-.174,4.4-3.758h1.676C26.837,2.47,24.644,3.83,22.935,4.834ZM29.487,2c.646-.428,1.06-.7,1.313-.9l.048-.031h.4c-.984.578-2.024,1.188-3.044,1.784C28.7,2.524,29.15,2.229,29.487,2Zm3.868-.929h.277l-.437.252A1.746,1.746,0,0,0,33.355,1.076Zm8.565,0h1.338L39.074,3.491l2.778-2.332A.482.482,0,0,0,41.92,1.076ZM34.951,4l3.222-2.836a.483.483,0,0,0,.066-.084h1.772Zm.145-2.2a6.462,6.462,0,0,0,.716-.717h.526Zm1.739,2.271L34.061,6.393a.483.483,0,0,0-.076.093H32.641Zm5.249,1.185c.334-.2.658-.4.968-.582-.673.56-1.416,1.161-2.135,1.726a.485.485,0,0,0-.081.093h-.713C40.865,6.033,41.521,5.619,42.084,5.249ZM44.989,1.4l-1.137.667.185-.126c.5-.343.858-.586,1.112-.773v.176A.486.486,0,0,0,44.989,1.4ZM19.46,4.214c1.214-.993,2.668-2.113,4.063-3.138h1.211Q22.8,2.122,19.46,4.214Zm-11.583.04A13.88,13.88,0,0,0,5.467,6.486H4.012ZM10.354,5.7c-.365.339-.612.586-.788.781H9.024C9.451,6.246,9.9,5.984,10.354,5.7Zm20.024-1.6c-1.084.774-2.252,1.588-3.39,2.364-.005,0-.008.009-.013.013h-.714Z" transform="translate(0 -0.004)" fill="#000000"/></g></svg>